<svg width="25" height="25" viewBox="0 0 42 44" fill="none" xmlns="http://www.w3.org/2000/svg">
  <rect x="8" y="4" width="26" height="28" rx="13" fill="#6F8DE5"/>
  <path d="M13 13H29M19 17V23M23 17V23M14 13L15 25C15 25.5304 15.2107 26.0391 15.5858 26.4142C15.9609 26.7893 16.4696 27 17 27H25C25.5304 27 26.0391 26.7893 26.4142 26.4142C26.7893 26.0391 27 25.5304 27 25L28 13M18 13V10C18 9.73478 18.1054 9.48043 18.2929 9.29289C18.4804 9.10536 18.7348 9 19 9H23C23.2652 9 23.5196 9.10536 23.7071 9.29289C23.8946 9.48043 24 9.73478 24 10V13" stroke="black" stroke-width="2" stroke-linecap="round" stroke-linejoin="round"/>
</svg>