<svg width="25" height="25" viewBox="0 0 45 45" fill="none" xmlns="http://www.w3.org/2000/svg">
  <rect x="8" y="4.00146" width="29" height="29.0014" rx="14.5" fill="#6F8DE5"/>
  <path d="M28.2407 10.5293C27.9026 10.1913 27.4441 10.0015 26.9661 10.0015C26.488 10.0015 26.0295 10.1913 25.6915 10.5293L24.2086 12.0131L28.9889 16.7933L30.4717 15.3114C30.6392 15.1439 30.772 14.9452 30.8627 14.7264C30.9533 14.5076 31 14.2731 31 14.0363C31 13.7995 30.9533 13.565 30.8627 13.3462C30.772 13.1274 30.6392 12.9287 30.4717 12.7612L28.2407 10.5293ZM27.7142 18.0679L22.934 13.2877L14.9699 21.2517L14 27.0028L19.7511 26.032L27.7142 18.0679Z" fill="black"/>
</svg>