<svg width="20" height="19" viewBox="0 0 20 19" fill="none" xmlns="http://www.w3.org/2000/svg">
<path d="M4.375 0C2 0 0 2 0 4.375C0 6.75 2 8.75 4.375 8.75C6.75 8.75 8.75 6.75 8.75 4.375C8.75 2 6.75 0 4.375 0ZM4.375 7.5C2.625 7.5 1.25 6.125 1.25 4.375C1.25 2.625 2.625 1.25 4.375 1.25C6.125 1.25 7.5 2.625 7.5 4.375C7.5 6.125 6.125 7.5 4.375 7.5ZM4.375 10C2 10 0 12 0 14.375C0 16.75 2 18.75 4.375 18.75C6.75 18.75 8.75 16.75 8.75 14.375C8.75 12 6.75 10 4.375 10ZM4.375 17.5C2.625 17.5 1.25 16.125 1.25 14.375C1.25 12.625 2.625 11.25 4.375 11.25C6.125 11.25 7.5 12.625 7.5 14.375C7.5 16.125 6.125 17.5 4.375 17.5ZM10 2.5H20V6.25H10V2.5ZM10 12.5H20V16.25H10V12.5Z" fill="#2546A5"/>
</svg>
