<svg width="42" height="41" viewBox="0 0 42 41" fill="none" xmlns="http://www.w3.org/2000/svg">

<path d="M20.0489 0.927051C20.3483 0.00574017 21.6517 0.00574017 21.9511 0.927051L25.2658 11.1287C25.3996 11.5407 25.7836 11.8197 26.2168 11.8197H36.9434C37.9122 11.8197 38.3149 13.0593 37.5312 13.6287L28.8532 19.9336C28.5027 20.1883 28.3561 20.6396 28.4899 21.0517L31.8046 31.2533C32.104 32.1746 31.0495 32.9407 30.2658 32.3713L21.5878 26.0664C21.2373 25.8117 20.7627 25.8117 20.4122 26.0664L11.7342 32.3713C10.9505 32.9407 9.896 32.1746 10.1954 31.2533L13.5101 21.0517C13.6439 20.6396 13.4973 20.1883 13.1468 19.9336L4.46877 13.6287C3.68505 13.0593 4.08783 11.8197 5.05655 11.8197H15.7832C16.2164 11.8197 16.6004 11.5407 16.7342 11.1287L20.0489 0.927051Z" fill="#D532D9"/>
<path d="M20.5245 1.08156C20.6741 0.620904 21.3259 0.620904 21.4755 1.08156L24.7902 11.2832C24.9911 11.9012 25.567 12.3197 26.2168 12.3197H36.9434C37.4278 12.3197 37.6292 12.9395 37.2373 13.2242L28.5593 19.5291C28.0336 19.9111 27.8136 20.5881 28.0144 21.2062L31.3291 31.4078C31.4788 31.8685 30.9516 32.2515 30.5597 31.9668L21.8817 25.6619C21.3559 25.2799 20.6441 25.2799 20.1183 25.6619L11.4403 31.9668C11.0484 32.2515 10.5212 31.8685 10.6709 31.4078L13.9856 21.2062C14.1864 20.5881 13.9664 19.9111 13.4407 19.5291L4.76266 13.2242C4.3708 12.9395 4.57219 12.3197 5.05655 12.3197H15.7832C16.433 12.3197 17.009 11.9012 17.2098 11.2832L20.5245 1.08156Z" stroke="#D532D9"/>


</svg>
