<svg width="48" height="46" viewBox="0 0 48 46" fill="none" xmlns="http://www.w3.org/2000/svg">
<path d="M26.2645 1.57732L13.8652 13.9766L1.51816 26.6108C0.545787 27.589 0 28.9122 0 30.2914C0 31.6707 0.545787 32.9939 1.51816 33.9721L12.7428 45.1967C13.229 45.6789 13.8852 45.9508 14.57 45.9537H45.8945V40.733H27.6219L46.4688 21.886C46.9542 21.4012 47.3393 20.8254 47.602 20.1916C47.8648 19.5578 48 18.8784 48 18.1924C48 17.5063 47.8648 16.8269 47.602 16.1931C47.3393 15.5593 46.9542 14.9835 46.4688 14.4987L33.6519 1.57732C33.167 1.09191 32.5912 0.706835 31.9574 0.444104C31.3236 0.181374 30.6443 0.0461426 29.9582 0.0461426C29.2721 0.0461426 28.5928 0.181374 27.959 0.444104C27.3252 0.706835 26.7494 1.09191 26.2645 1.57732ZM15.6403 40.733L5.19879 30.2914L17.5981 17.6572L19.5297 15.6995L32.4511 28.6208L20.5478 40.5241L20.3651 40.733H15.6403Z" fill="white"/>
</svg>
