<svg width="40" height="48" viewBox="0 0 40 48" fill="none" xmlns="http://www.w3.org/2000/svg">
<path d="M19.9999 47.9999C14.7338 47.9926 9.6854 45.8975 5.96167 42.1737C2.23793 38.45 0.142747 33.4016 0.135498 28.1354C0.135498 27.5904 0.352 27.0678 0.737377 26.6824C1.12275 26.297 1.64544 26.0805 2.19044 26.0805C2.73545 26.0805 3.25813 26.297 3.6435 26.6824C4.02888 27.0678 4.24538 27.5904 4.24538 28.1354C4.24538 31.2514 5.16937 34.2974 6.90051 36.8882C8.63164 39.479 11.0922 41.4983 13.9709 42.6908C16.8497 43.8832 20.0174 44.1952 23.0735 43.5873C26.1296 42.9794 28.9368 41.4789 31.1401 39.2756C33.3434 37.0723 34.8439 34.2651 35.4518 31.209C36.0597 28.1529 35.7477 24.9852 34.5553 22.1064C33.3628 19.2277 31.3435 16.7671 28.7527 15.036C26.1619 13.3049 23.1159 12.3809 19.9999 12.3809H13.1501C12.6051 12.3809 12.0824 12.1644 11.6971 11.779C11.3117 11.3936 11.0952 10.8709 11.0952 10.3259C11.0952 9.78093 11.3117 9.25825 11.6971 8.87287C12.0824 8.4875 12.6051 8.271 13.1501 8.271H19.9999C25.2683 8.271 30.3209 10.3639 34.0462 14.0892C37.7715 17.8145 39.8644 22.8671 39.8644 28.1354C39.8644 33.4038 37.7715 38.4564 34.0462 42.1817C30.3209 45.907 25.2683 47.9999 19.9999 47.9999Z" fill="white"/>
<path d="M19.9998 20.6007C19.7298 20.602 19.4623 20.5493 19.2129 20.4458C18.9636 20.3423 18.7374 20.19 18.5477 19.9979L10.3279 11.7781C9.94308 11.3928 9.72693 10.8705 9.72693 10.326C9.72693 9.78141 9.94308 9.25912 10.3279 8.87381L18.5477 0.654043C18.7358 0.452147 18.9627 0.290211 19.2147 0.177896C19.4668 0.0655815 19.7389 0.00518806 20.0148 0.000319807C20.2908 -0.00454845 20.5648 0.0462076 20.8207 0.14956C21.0766 0.252913 21.309 0.406745 21.5042 0.601879C21.6993 0.797013 21.8531 1.02945 21.9565 1.28533C22.0598 1.5412 22.1106 1.81528 22.1057 2.09119C22.1008 2.36711 22.0405 2.63922 21.9281 2.89129C21.8158 3.14337 21.6539 3.37023 21.452 3.55836L14.6844 10.326L21.452 17.0936C21.8368 17.4789 22.053 18.0012 22.053 18.5457C22.053 19.0903 21.8368 19.6126 21.452 19.9979C21.2623 20.19 21.0361 20.3423 20.7867 20.4458C20.5374 20.5493 20.2698 20.602 19.9998 20.6007Z" fill="white"/>
</svg>
