<svg width="48" height="48" viewBox="0 0 48 48" fill="none" xmlns="http://www.w3.org/2000/svg">
<path d="M40.209 1.4904C39.2544 0.536096 37.9599 0 36.6101 0C35.2603 0 33.9658 0.536096 33.0112 1.4904L28.8243 5.67979L42.3215 19.1769L46.5083 14.9926C46.9812 14.5199 47.3564 13.9587 47.6123 13.341C47.8683 12.7232 48 12.0611 48 11.3925C48 10.7238 47.8683 10.0617 47.6123 9.44399C47.3564 8.82626 46.9812 8.26501 46.5083 7.7923L40.209 1.4904ZM38.7226 22.7759L25.2254 9.27869L2.73863 31.7655L0 48.0038L16.2383 45.2626L38.7226 22.7759Z" fill="white"/>
</svg>
