<svg width="160" height="43" viewBox="0 0 160 43" fill="none" xmlns="http://www.w3.org/2000/svg">
<path fill-rule="evenodd" clip-rule="evenodd" d="M26.6046 3.48126C25.1108 2.08551 22.6895 2.08597 21.1964 3.4823L8.73505 15.1357L8.72443 15.1328L8.68505 15.1368C8.70127 15.144 8.71719 15.1512 8.73279 15.1585C6.54681 15.3726 5.61933 15.9867 5.60883 16.7752C5.61253 17.0686 5.74128 17.3854 5.97777 17.7142L5.9664 17.7249C7.95368 20.5267 17.7986 24.2227 24.7636 21.7186C19.5436 24.1583 7.25025 24.6419 3.6395 19.9048C2.85536 20.6978 2.52728 21.7399 2.65083 22.7413C3.60469 27.6558 14.2689 28.9966 24.9332 21.8761L27.2409 24.0333C24.3693 26.7911 20.1276 42.81 26.4303 40.3642C26.5798 40.2693 26.7067 40.1844 26.8793 40.0624L27.1602 39.8145C27.144 39.8182 27.1279 39.8217 27.1119 39.8253L43.9919 24.9289C45.5592 23.5457 45.5947 21.2256 44.0702 19.8011L26.6046 3.48126ZM24.7664 8.33586L25.3433 6.17867L25.9202 8.33586L27.651 8.87516L25.9202 9.41448L25.3433 11.5717L24.7664 9.41448L23.0356 8.87516L24.7664 8.33586ZM17.6255 15.3779L18.0101 13.9398L18.3947 15.3779L19.5486 15.7374L18.3947 16.097L18.0101 17.5351L17.6255 16.097L16.4717 15.7374L17.6255 15.3779ZM31.0211 27.5085L30.6365 28.9466L29.4827 29.3062L30.6365 29.6657L31.0211 31.1038L31.4057 29.6657L32.5596 29.3062L31.4057 28.9466L31.0211 27.5085Z" fill="#2546A5"/>
<path d="M54.898 11.4749H51.3159V26.584H61.2323V23.6235H54.898V11.4749Z" fill="#2546A5"/>
<path d="M61.5745 21.4592C61.5745 24.6852 63.8898 26.829 67.3845 26.829C70.8575 26.829 73.1727 24.6852 73.1727 21.4592C73.1727 18.2331 70.8575 16.0689 67.3845 16.0689C63.8898 16.0689 61.5745 18.2331 61.5745 21.4592ZM64.9601 21.4388C64.9601 19.9074 65.9211 18.8865 67.3845 18.8865C68.8261 18.8865 69.7872 19.9074 69.7872 21.4388C69.7872 22.9905 68.8261 24.0114 67.3845 24.0114C65.9211 24.0114 64.9601 22.9905 64.9601 21.4388Z" fill="#2546A5"/>
<path d="M73.7136 21.2958C73.7136 24.3789 75.8542 26.4615 78.8902 26.4615C80.3537 26.4615 81.6205 25.9714 82.2539 25.1752V26.584C82.2539 27.9928 81.3147 28.9321 79.6547 28.9321C78.1694 28.9321 77.1429 28.2787 77.0773 27.1149H73.67C73.9757 29.9121 76.291 31.7906 79.4581 31.7906C83.1932 31.7906 85.5521 29.5242 85.5521 25.9306V16.3751H82.516L82.3413 17.4164C81.7297 16.5793 80.441 16.0281 78.9558 16.0281C75.8979 16.0281 73.7136 18.1719 73.7136 21.2958ZM77.121 21.2141C77.121 19.7441 78.1695 18.764 79.5018 18.764C81.0526 18.764 82.1884 19.7236 82.1884 21.2141C82.1884 22.7047 81.0746 23.7255 79.5238 23.7255C78.1914 23.7255 77.121 22.7047 77.121 21.2141Z" fill="#2546A5"/>
<path d="M86.5326 21.4592C86.5326 24.6852 88.8478 26.829 92.3426 26.829C95.8155 26.829 98.1308 24.6852 98.1308 21.4592C98.1308 18.2331 95.8155 16.0689 92.3426 16.0689C88.8478 16.0689 86.5326 18.2331 86.5326 21.4592ZM89.9181 21.4388C89.9181 19.9074 90.8792 18.8865 92.3426 18.8865C93.7842 18.8865 94.7452 19.9074 94.7452 21.4388C94.7452 22.9905 93.7842 24.0114 92.3426 24.0114C90.8792 24.0114 89.9181 22.9905 89.9181 21.4388Z" fill="#2546A5"/>
<path d="M101.031 14.7826C102.079 14.7826 102.931 13.9863 102.931 12.9858C102.931 11.9853 102.079 11.2094 101.031 11.2094C99.9605 11.2094 99.1086 11.9853 99.1086 12.9858C99.1086 13.9863 99.9605 14.7826 101.031 14.7826ZM99.327 26.584H102.713V16.3751H99.327V26.584Z" fill="#2546A5"/>
<path d="M104.683 31.4842H108.003V25.5631C108.637 26.339 110.078 26.8699 111.586 26.8699C114.84 26.8699 116.806 24.5423 116.718 21.3162C116.631 18.029 114.6 16.0484 111.564 16.0484C110.013 16.0484 108.55 16.6814 107.938 17.6207L107.763 16.3751H104.683V31.4842ZM108.069 21.4795C108.069 19.9483 109.161 18.9274 110.734 18.9274C112.328 18.9274 113.333 19.9686 113.333 21.4795C113.333 22.9905 112.328 24.0318 110.734 24.0318C109.161 24.0318 108.069 23.0109 108.069 21.4795Z" fill="#2546A5"/>
<path d="M117.077 23.358C117.164 25.4202 118.912 26.8494 121.664 26.8494C124.307 26.8494 126.142 25.5427 126.142 23.4397C126.142 21.9288 125.18 20.9283 123.389 20.52L121.445 20.0707C120.746 19.9074 120.31 19.7441 120.31 19.2132C120.31 18.6824 120.768 18.3352 121.445 18.3352C122.21 18.3352 122.712 18.8048 122.69 19.4991H125.727C125.639 17.3756 123.914 16.0484 121.511 16.0484C119.086 16.0484 117.274 17.396 117.274 19.4378C117.274 20.8058 118.082 21.9288 120.244 22.4596L122.166 22.9292C122.734 23.0721 122.974 23.3171 122.974 23.6643C122.974 24.1747 122.472 24.5014 121.62 24.5014C120.637 24.5014 120.113 24.0726 120.113 23.358H117.077Z" fill="#2546A5"/>
<path d="M131.29 26.8494C132.623 26.8494 133.955 26.2778 134.632 25.4406L134.851 26.584H138.018V16.3751H134.654V21.6838C134.654 23.215 134.173 24.0522 132.623 24.0522C131.421 24.0522 130.635 23.5418 130.635 21.6429V16.3751H127.271V22.7863C127.271 25.216 128.713 26.8494 131.29 26.8494Z" fill="#2546A5"/>
<path d="M143.352 26.584V21.01C143.352 19.2948 144.335 18.8048 145.296 18.8048C146.366 18.8048 147.065 19.4174 147.065 20.6833V26.584H150.385V21.01C150.385 19.2745 151.346 18.7845 152.307 18.7845C153.377 18.7845 154.098 19.3969 154.098 20.6833V26.584H157.375V19.9074C157.375 17.5798 156.064 16.0281 153.246 16.0281C151.674 16.0281 150.385 16.7427 149.817 17.8452C149.162 16.7427 148.026 16.0281 146.213 16.0281C145.012 16.0281 143.898 16.5385 143.243 17.3552L143.112 16.3751H139.966V26.584H143.352Z" fill="#2546A5"/>
<path fill-rule="evenodd" clip-rule="evenodd" d="M45.2918 4.90881C41.6831 4.90881 38.2608 6.40718 35.9505 8.99868L27.7315 18.2184L32.4775 11.5635L24.5995 14.7196C23.599 15.1205 23.348 16.339 24.1176 17.0585L26.6528 19.4282L25.3584 20.8802L28.2061 23.5421L29.7593 22.3321L32.2945 24.702C33.0641 25.4214 34.3677 25.1868 34.7964 24.2516L38.1727 16.8874L31.0537 21.3239L40.9166 13.6408C43.6889 11.4813 45.2918 8.28217 45.2918 4.90881ZM37.4609 12.2292C38.2472 12.9642 39.5221 12.9642 40.3085 12.2292C41.0948 11.4941 41.0948 10.3023 40.3085 9.56731C39.5221 8.83221 38.2472 8.83221 37.4609 9.56731C36.6745 10.3023 36.6745 11.4941 37.4609 12.2292Z" fill="#D532D9"/>
<path opacity="0.6" d="M3.54797 19.7808C5.43343 25.8194 16.8966 25.5045 24.7614 21.7195C19.495 24.1795 7.03699 24.6493 3.54797 19.7808Z" fill="#424242"/>
<path opacity="0.6" d="M26.4303 40.3642C21.1195 42.425 23.2955 31.3755 25.8299 26.1968C23.9825 30.7999 22.4055 40.947 27.1602 39.8144L26.8793 40.0624C26.7067 40.1844 26.5798 40.2693 26.4303 40.3642Z" fill="#424242"/>
</svg>
