<svg width="18" height="19" viewBox="0 0 18 19" fill="none" xmlns="http://www.w3.org/2000/svg">
<path fill-rule="evenodd" clip-rule="evenodd" d="M6.75 4.25C6.75 3.85218 6.90804 3.47064 7.18934 3.18934C7.47064 2.90804 7.85218 2.75 8.25 2.75H9.75C10.1478 2.75 10.5294 2.90804 10.8107 3.18934C11.092 3.47064 11.25 3.85218 11.25 4.25V7.25H14.25C14.6478 7.25 15.0294 7.40804 15.3107 7.68934C15.592 7.97064 15.75 8.35218 15.75 8.75V10.25C15.75 10.6478 15.592 11.0294 15.3107 11.3107C15.0294 11.592 14.6478 11.75 14.25 11.75H11.25V14.75C11.25 15.1478 11.092 15.5294 10.8107 15.8107C10.5294 16.092 10.1478 16.25 9.75 16.25H8.25C7.85218 16.25 7.47064 16.092 7.18934 15.8107C6.90804 15.5294 6.75 15.1478 6.75 14.75V11.75H3.75C3.35218 11.75 2.97064 11.592 2.68934 11.3107C2.40804 11.0294 2.25 10.6478 2.25 10.25V8.75C2.25 8.35218 2.40804 7.97064 2.68934 7.68934C2.97064 7.40804 3.35218 7.25 3.75 7.25H6.75V4.25Z" fill="black"/>
</svg>
