<svg width="19" height="19" viewBox="0 0 19 19" fill="none" xmlns="http://www.w3.org/2000/svg">
<path fill-rule="evenodd" clip-rule="evenodd" d="M9.49993 3.16671C8.39219 3.1665 7.30378 3.45684 6.34333 4.00875C5.38287 4.56065 4.58397 5.35481 4.02636 6.31196C3.46874 7.26911 3.17193 8.35578 3.16554 9.46349C3.15915 10.5712 3.4434 11.6612 3.98993 12.6247C4.35933 12.1447 4.83418 11.756 5.37779 11.4887C5.92139 11.2214 6.51917 11.0827 7.12493 11.0834H11.8749C12.4807 11.0827 13.0785 11.2214 13.6221 11.4887C14.1657 11.756 14.6405 12.1447 15.0099 12.6247C15.5565 11.6612 15.8407 10.5712 15.8343 9.46349C15.8279 8.35578 15.5311 7.26911 14.9735 6.31196C14.4159 5.35481 13.617 4.56065 12.6565 4.00875C11.6961 3.45684 10.6077 3.1665 9.49993 3.16671ZM15.7881 14.3102C15.8874 14.1809 15.9824 14.0484 16.0731 13.9128C16.9508 12.6087 17.4186 11.072 17.4166 9.50004C17.4166 5.12767 13.8723 1.58337 9.49993 1.58337C5.12755 1.58337 1.58326 5.12767 1.58326 9.50004C1.58077 11.2391 2.15329 12.9303 3.21172 14.3102L3.20776 14.3245L3.4888 14.6514C4.23129 15.5195 5.15319 16.2162 6.19094 16.6936C7.2287 17.171 8.35763 17.4177 9.49993 17.4167C9.67093 17.4167 9.84087 17.4114 10.0098 17.4009C11.4382 17.3108 12.8152 16.8332 13.9926 16.0194C14.5558 15.6309 15.0661 15.1711 15.5111 14.6514L15.7921 14.3245L15.7881 14.3102ZM9.49993 4.75004C8.87004 4.75004 8.26595 5.00026 7.82055 5.44566C7.37515 5.89106 7.12493 6.49515 7.12493 7.12504C7.12493 7.75493 7.37515 8.35902 7.82055 8.80442C8.26595 9.24982 8.87004 9.50004 9.49993 9.50004C10.1298 9.50004 10.7339 9.24982 11.1793 8.80442C11.6247 8.35902 11.8749 7.75493 11.8749 7.12504C11.8749 6.49515 11.6247 5.89106 11.1793 5.44566C10.7339 5.00026 10.1298 4.75004 9.49993 4.75004Z" fill="black"/>
</svg>
