<svg width="106" height="24" viewBox="0 0 106 24" fill="none" xmlns="http://www.w3.org/2000/svg">
<g clip-path="url(#clip0_323_3063)">
<path fill-rule="evenodd" clip-rule="evenodd" d="M22.6752 0H1.3248C0.5928 0 0 0.5928 0 1.3248V22.6752C0 23.4072 0.5928 24 1.3248 24H12.8184V14.706H9.6912V11.0844H12.8184V8.412C12.8184 5.3112 14.712 3.624 17.478 3.624C18.8028 3.624 19.9404 3.7224 20.2728 3.7668V7.0068H18.3552C16.8504 7.0068 16.56 7.722 16.56 8.7708V11.0832H20.1468L19.6788 14.7048H16.5588V24H22.6752C23.4072 24 24 23.4072 24 22.6752V1.3248C24 0.5928 23.4072 0 22.6752 0Z" fill="black"/>
</g>
<g clip-path="url(#clip1_323_3063)">
<path d="M55.2343 10.1625L63.9767 0H61.9048L54.3141 8.82375L48.2511 0H41.2581L50.4264 13.3433L41.2581 24H43.3299L51.3463 14.6818L57.7491 24H64.7421L55.2337 10.1625H55.2343ZM52.3967 13.4606L51.4676 12.132L44.0764 1.55962H47.2586L53.2232 10.092L54.1521 11.4206L61.9057 22.5112H58.7239L52.3967 13.4612V13.4606Z" fill="black"/>
</g>
<g clip-path="url(#clip2_323_3063)">
<path d="M100.375 0H87.625C84.5184 0 82 2.5184 82 5.625V18.375C82 21.4816 84.5184 24 87.625 24H100.375C103.482 24 106 21.4816 106 18.375V5.625C106 2.5184 103.482 0 100.375 0Z" fill="black"/>
<path d="M100.375 0H87.625C84.5184 0 82 2.5184 82 5.625V18.375C82 21.4816 84.5184 24 87.625 24H100.375C103.482 24 106 21.4816 106 18.375V5.625C106 2.5184 103.482 0 100.375 0Z" fill="black"/>
<path d="M94.0008 2.625C91.4548 2.625 91.1352 2.63616 90.1353 2.68163C89.1372 2.72738 88.4559 2.88534 87.8598 3.11719C87.2432 3.35662 86.7201 3.67697 86.1991 4.19822C85.6775 4.71937 85.3572 5.24241 85.117 5.85881C84.8845 6.45506 84.7263 7.13662 84.6814 8.13422C84.6367 9.13425 84.625 9.45394 84.625 12.0001C84.625 14.5463 84.6363 14.8648 84.6816 15.8647C84.7276 16.8628 84.8855 17.5441 85.1172 18.1402C85.3568 18.7568 85.6772 19.2799 86.1984 19.8009C86.7194 20.3225 87.2424 20.6436 87.8586 20.883C88.4552 21.1148 89.1365 21.2728 90.1344 21.3186C91.1344 21.364 91.4538 21.3752 93.9997 21.3752C96.5461 21.3752 96.8646 21.364 97.8646 21.3186C98.8626 21.2728 99.5447 21.1148 100.141 20.883C100.758 20.6436 101.28 20.3225 101.801 19.8009C102.322 19.2799 102.643 18.7568 102.883 18.1404C103.113 17.5441 103.271 16.8626 103.318 15.8649C103.363 14.865 103.375 14.5463 103.375 12.0001C103.375 9.45394 103.363 9.13444 103.318 8.13441C103.271 7.13634 103.113 6.45516 102.883 5.85909C102.643 5.24241 102.322 4.71937 101.801 4.19822C101.279 3.67678 100.758 3.35644 100.141 3.11728C99.543 2.88534 98.8613 2.72728 97.8632 2.68163C96.8632 2.63616 96.5448 2.625 93.9979 2.625H94.0008ZM93.1598 4.31447C93.4095 4.31409 93.688 4.31447 94.0008 4.31447C96.5041 4.31447 96.8007 4.32347 97.7892 4.36838C98.7032 4.41019 99.1994 4.56291 99.5298 4.69125C99.9674 4.86112 100.279 5.06428 100.607 5.3925C100.935 5.72062 101.138 6.03309 101.309 6.47062C101.437 6.80062 101.59 7.29675 101.632 8.21081C101.677 9.19913 101.686 9.49594 101.686 11.9979C101.686 14.4999 101.677 14.7968 101.632 15.7851C101.59 16.6991 101.437 17.1952 101.309 17.5253C101.139 17.9629 100.935 18.2744 100.607 18.6023C100.279 18.9305 99.9676 19.1335 99.5298 19.3035C99.1997 19.4324 98.7032 19.5848 97.7892 19.6266C96.8009 19.6715 96.5041 19.6812 94.0008 19.6812C91.4975 19.6812 91.2008 19.6715 90.2126 19.6266C89.2985 19.5844 88.8024 19.4317 88.4717 19.3033C88.0342 19.1333 87.7217 18.9303 87.3935 18.6022C87.0654 18.274 86.8623 17.9623 86.692 17.5246C86.5637 17.1945 86.4108 16.6984 86.3691 15.7843C86.3242 14.796 86.3152 14.4992 86.3152 11.9956C86.3152 9.492 86.3242 9.19678 86.3691 8.20847C86.4109 7.29441 86.5637 6.79828 86.692 6.46781C86.862 6.03028 87.0654 5.71781 87.3936 5.38969C87.7218 5.06156 88.0342 4.85841 88.4717 4.68816C88.8022 4.55925 89.2985 4.40691 90.2126 4.36491C91.0774 4.32581 91.4126 4.31409 93.1598 4.31212V4.31447ZM99.0052 5.87109C98.3841 5.87109 97.8802 6.37453 97.8802 6.99572C97.8802 7.61681 98.3841 8.12072 99.0052 8.12072C99.6263 8.12072 100.13 7.61681 100.13 6.99572C100.13 6.37463 99.6263 5.87072 99.0052 5.87072V5.87109ZM94.0008 7.18556C91.3421 7.18556 89.1864 9.34125 89.1864 12.0001C89.1864 14.6589 91.3421 16.8136 94.0008 16.8136C96.6597 16.8136 98.8146 14.6589 98.8146 12.0001C98.8146 9.34134 96.6595 7.18556 94.0007 7.18556H94.0008ZM94.0008 8.87503C95.7267 8.87503 97.1259 10.2741 97.1259 12.0001C97.1259 13.7259 95.7267 15.1252 94.0008 15.1252C92.275 15.1252 90.8759 13.7259 90.8759 12.0001C90.8759 10.2741 92.2749 8.87503 94.0008 8.87503Z" fill="white"/>
</g>
<defs>
<clipPath id="clip0_323_3063">
<rect width="24" height="24" fill="white"/>
</clipPath>
<clipPath id="clip1_323_3063">
<rect width="24" height="24" fill="white" transform="translate(41)"/>
</clipPath>
<clipPath id="clip2_323_3063">
<rect width="24" height="24" fill="white" transform="translate(82)"/>
</clipPath>
</defs>
</svg>
