<svg width="1440" height="304" viewBox="0 0 1440 304" fill="none" xmlns="http://www.w3.org/2000/svg">
<path fill-rule="evenodd" clip-rule="evenodd" d="M0 -2L60.4583 20.6667C120.917 43.3334 241.833 88.6667 362.75 94.3333C483.667 100 604.583 66 725.5 54.6667C846.417 43.3333 967.333 54.6667 1088.25 49C1209.17 43.3333 1330.08 20.6667 1390.54 9.33334L1451 -2V304H1390.54C1330.08 304 1209.17 304 1088.25 304C967.333 304 846.417 304 725.5 304C604.583 304 483.667 304 362.75 304C241.833 304 120.917 304 60.4583 304H0V-2Z" fill="white"/>
</svg>
